<svg xmlns="http://www.w3.org/2000/svg" xmlns:xlink="http://www.w3.org/1999/xlink" width="342.339" height="189.934" viewBox="0 0 342.339 189.934"><defs><filter id="a" x="0" y="14.378" width="336.685" height="160.547" filterUnits="userSpaceOnUse"><feOffset input="SourceAlpha"/><feGaussianBlur stdDeviation="12.5" result="b"/><feFlood flood-color="#0b022f"/><feComposite operator="in" in2="b"/><feComposite in="SourceGraphic"/></filter><filter id="c" x="3.087" y="7.598" width="339.252" height="168.397" filterUnits="userSpaceOnUse"><feOffset input="SourceAlpha"/><feGaussianBlur stdDeviation="12.5" result="d"/><feFlood flood-color="#aa2fe6"/><feComposite operator="in" in2="d"/><feComposite in="SourceGraphic"/></filter><filter id="e" x="181.103" y="118.22" width="137.637" height="71.713" filterUnits="userSpaceOnUse"><feOffset input="SourceAlpha"/><feGaussianBlur stdDeviation="7.5" result="f"/><feFlood flood-opacity="0.161"/><feComposite operator="in" in2="f"/><feComposite in="SourceGraphic"/></filter><filter id="g" x="12.101" y="0" width="97.091" height="72.209" filterUnits="userSpaceOnUse"><feOffset input="SourceAlpha"/><feGaussianBlur stdDeviation="7.5" result="h"/><feFlood flood-opacity="0.161"/><feComposite operator="in" in2="h"/><feComposite in="SourceGraphic"/></filter></defs><g transform="translate(34.604 22.502)"><g transform="matrix(1, 0, 0, 1, -34.6, -22.5)" filter="url(#a)"><path d="M75.071,4.9,44.191,48.02l-1.46,35.148H16.117l.673-34.924L.732,6.583,29.367,2.99l4.492,24.255L48.118,2.99ZM134.7,41.282a40.707,40.707,0,0,1-1.179,9.854,38.569,38.569,0,0,1-3.4,8.9,36.842,36.842,0,0,1-5.39,7.608A34.438,34.438,0,0,1,99.1,78.784a35.292,35.292,0,0,1-9.63-1.288,36.574,36.574,0,0,1-8.563-3.622A34.44,34.44,0,0,1,73.7,68.263a34.919,34.919,0,0,1-5.5-7.3,37.592,37.592,0,0,1-3.537-8.619,36.122,36.122,0,0,1-1.263-9.6,39.243,39.243,0,0,1,4.576-18.417,38.149,38.149,0,0,1,5.362-7.635,35.348,35.348,0,0,1,7.047-6.008A33.81,33.81,0,0,1,88.83,6.752a32.375,32.375,0,0,1,9.6-1.4,41.846,41.846,0,0,1,14.851,2.527,31.461,31.461,0,0,1,18.81,18.557,40.352,40.352,0,0,1,2.607,14.85Zm-24.93,1.46a15.807,15.807,0,0,0-.7-4.692,12.866,12.866,0,0,0-2.05-4.043,10.505,10.505,0,0,0-3.341-2.864A9.349,9.349,0,0,0,99.1,30.049,11.174,11.174,0,0,0,94.385,31a10.79,10.79,0,0,0-3.566,2.611,11.453,11.453,0,0,0-2.274,3.874,13.929,13.929,0,0,0-.786,4.692,17.1,17.1,0,0,0,.673,4.716,14.011,14.011,0,0,0,2.024,4.267A10.744,10.744,0,0,0,93.8,54.252a8.923,8.923,0,0,0,4.632,1.179,10.579,10.579,0,0,0,4.744-1.039,10.7,10.7,0,0,0,3.566-2.808,12.853,12.853,0,0,0,2.246-4.071,14.667,14.667,0,0,0,.786-4.769Zm78.213,6.176-2.358,24.93L138.35,77.553q.337-19.594.758-38.966T140.146-.379h29.2q-1.288,12.3-2.471,24.562t-1.688,24.736q2.639.112,5.221.112h5.221q3.144,0,6.176-.056t6.181-.056Zm72.037-7.635a40.706,40.706,0,0,1-1.179,9.854,38.569,38.569,0,0,1-3.4,8.9,36.843,36.843,0,0,1-5.39,7.608,34.457,34.457,0,0,1-25.627,11.145A35.291,35.291,0,0,1,214.8,77.5a36.575,36.575,0,0,1-8.563-3.622,34.44,34.44,0,0,1-7.215-5.611,34.919,34.919,0,0,1-5.5-7.308,37.592,37.592,0,0,1-3.537-8.619,36.121,36.121,0,0,1-1.267-9.6,39.243,39.243,0,0,1,4.576-18.417,38.149,38.149,0,0,1,5.362-7.635,35.347,35.347,0,0,1,7.047-6.008,33.811,33.811,0,0,1,8.45-3.93,32.375,32.375,0,0,1,9.6-1.4A41.846,41.846,0,0,1,238.6,7.879a31.461,31.461,0,0,1,18.81,18.557,40.352,40.352,0,0,1,2.611,14.847Zm-24.93,1.46a15.807,15.807,0,0,0-.7-4.692,12.865,12.865,0,0,0-2.05-4.043A10.505,10.505,0,0,0,229,31.145a9.349,9.349,0,0,0-4.571-1.094,11.174,11.174,0,0,0-4.716.955,10.79,10.79,0,0,0-3.566,2.611,11.453,11.453,0,0,0-2.274,3.874,13.929,13.929,0,0,0-.786,4.692,17.1,17.1,0,0,0,.673,4.716,14.012,14.012,0,0,0,2.024,4.267,10.744,10.744,0,0,0,3.341,3.088,8.923,8.923,0,0,0,4.632,1.179,10.579,10.579,0,0,0,4.744-1.039,10.7,10.7,0,0,0,3.566-2.808,12.853,12.853,0,0,0,2.246-4.071,14.669,14.669,0,0,0,.781-4.771Z" transform="translate(38.16 53.26)" fill="#ffdf6c" stroke="rgba(11,1,52,0.82)" stroke-width="2" opacity="0.8"/></g><g transform="matrix(1, 0, 0, 1, -34.6, -22.5)" filter="url(#c)"><path d="M74.339,5.278,43.459,48.4,42,83.547H15.385l.673-34.924L0,6.962,28.635,3.369l4.492,24.255L47.386,3.369Zm59.628,36.384a40.707,40.707,0,0,1-1.179,9.854,38.569,38.569,0,0,1-3.4,8.9A36.841,36.841,0,0,1,124,68.022,34.438,34.438,0,0,1,98.37,79.163a35.292,35.292,0,0,1-9.63-1.288,36.574,36.574,0,0,1-8.563-3.622,34.44,34.44,0,0,1-7.215-5.611,34.919,34.919,0,0,1-5.5-7.3,37.592,37.592,0,0,1-3.537-8.619,36.122,36.122,0,0,1-1.263-9.6,39.243,39.243,0,0,1,4.576-18.417A38.149,38.149,0,0,1,72.6,17.073a35.348,35.348,0,0,1,7.047-6.008A33.81,33.81,0,0,1,88.1,7.131a32.375,32.375,0,0,1,9.6-1.4,41.846,41.846,0,0,1,14.851,2.527,31.461,31.461,0,0,1,18.81,18.557,40.352,40.352,0,0,1,2.607,14.85Zm-24.93,1.46a15.807,15.807,0,0,0-.7-4.692,12.866,12.866,0,0,0-2.05-4.043,10.505,10.505,0,0,0-3.341-2.864,9.349,9.349,0,0,0-4.576-1.095,11.174,11.174,0,0,0-4.716.955,10.79,10.79,0,0,0-3.566,2.611,11.453,11.453,0,0,0-2.274,3.874,13.929,13.929,0,0,0-.786,4.692,17.1,17.1,0,0,0,.673,4.716,14.011,14.011,0,0,0,2.024,4.267,10.744,10.744,0,0,0,3.341,3.088A8.923,8.923,0,0,0,97.7,55.81a10.579,10.579,0,0,0,4.744-1.039,10.7,10.7,0,0,0,3.566-2.808,12.853,12.853,0,0,0,2.246-4.071,14.667,14.667,0,0,0,.786-4.769ZM187.251,49.3l-2.358,24.93-47.275,3.705q.337-19.594.758-38.966T139.414,0h29.2q-1.288,12.3-2.471,24.562T164.451,49.3q2.639.112,5.221.112h5.221q3.144,0,6.176-.056t6.181-.056Zm72.037-7.635a40.706,40.706,0,0,1-1.179,9.854,38.568,38.568,0,0,1-3.4,8.9,36.843,36.843,0,0,1-5.39,7.608,34.457,34.457,0,0,1-25.627,11.145,35.291,35.291,0,0,1-9.63-1.288,36.575,36.575,0,0,1-8.563-3.622,34.44,34.44,0,0,1-7.215-5.611,34.919,34.919,0,0,1-5.5-7.308,37.592,37.592,0,0,1-3.537-8.619,36.121,36.121,0,0,1-1.267-9.6,39.243,39.243,0,0,1,4.576-18.417,38.149,38.149,0,0,1,5.362-7.635,35.347,35.347,0,0,1,7.047-6.008,33.811,33.811,0,0,1,8.45-3.93,32.375,32.375,0,0,1,9.6-1.4,41.846,41.846,0,0,1,14.851,2.527,31.461,31.461,0,0,1,18.81,18.557,40.352,40.352,0,0,1,2.611,14.847Zm-24.93,1.46a15.807,15.807,0,0,0-.7-4.692,12.865,12.865,0,0,0-2.05-4.043,10.505,10.505,0,0,0-3.341-2.864,9.349,9.349,0,0,0-4.571-1.094,11.174,11.174,0,0,0-4.716.955A10.79,10.79,0,0,0,215.412,34a11.453,11.453,0,0,0-2.274,3.874,13.929,13.929,0,0,0-.786,4.692,17.1,17.1,0,0,0,.673,4.716,14.012,14.012,0,0,0,2.024,4.267,10.744,10.744,0,0,0,3.341,3.088,8.923,8.923,0,0,0,4.632,1.179,10.579,10.579,0,0,0,4.744-1.039,10.7,10.7,0,0,0,3.566-2.808,12.853,12.853,0,0,0,2.246-4.071,14.669,14.669,0,0,0,.781-4.771Z" transform="translate(42.01 53.91) rotate(-1.72)" fill="#fff" stroke="rgba(25,3,109,0.36)" stroke-width="2"/></g><g transform="matrix(1, 0, 0, 1, -34.6, -22.5)" filter="url(#e)"><path d="M11.53,23.516A11.248,11.248,0,0,1,3.417,20.2,11.242,11.242,0,0,1,.006,11.776,11.3,11.3,0,0,1,3.417,3.331,11.5,11.5,0,0,1,11.762,0a12.009,12.009,0,0,1,6.541,1.8,10.277,10.277,0,0,1,4.156,5.117H17.922a6.439,6.439,0,0,0-6.163-3.477,7.543,7.543,0,0,0-5.68,2.285,8.343,8.343,0,0,0-2.2,6.044,8.343,8.343,0,0,0,2.2,6.044A7.3,7.3,0,0,0,11.567,20.1a7.519,7.519,0,0,0,5.216-1.739,7.408,7.408,0,0,0,2.335-4.719H10.471V10.7H23.158v2.944a11.057,11.057,0,0,1-3.713,7A11.385,11.385,0,0,1,11.53,23.516Zm30.865-.2-1.656-4.7H31.1l-1.656,4.7H25.506L33.752.268h4.371l8.246,23.049Zm-10.266-7.65h7.587L35.945,4.838ZM74.188.3V23.317H70.416V7.553L63.392,23.317H60.775L53.721,7.553V23.317H49.95V.3h4.073L62.1,18.35,70.147.3ZM91.872.271V3.215H82.931v6.991h7.948v2.914H82.931v7.253h8.942v2.944H79.155V.268Z" transform="translate(204.42 140.72) rotate(2)" fill="#ffdf6c"/></g><g transform="matrix(1, 0, 0, 1, -34.6, -22.5)" filter="url(#g)"><path d="M0,2.649V.029H14.277v2.62H8.831V20.488H5.475V2.649ZM30.644.029H34V20.488H30.644V11.451H21.022v9.037h-3.36V.029h3.36V8.861h9.622ZM49.723,0V2.62H41.775V8.831H48.84v2.59H41.775v6.447h7.948v2.62H38.416V0Z" transform="translate(34.6 29.42) rotate(-8)" fill="#ffdf6c"/></g></g></svg>